<?xml version="1.0" encoding="utf-8"?>
<!-- Generator: Adobe Illustrator 26.2.1, SVG Export Plug-In . SVG Version: 6.00 Build 0)  -->
<svg version="1.1" id="Layer_1" xmlns="http://www.w3.org/2000/svg" xmlns:xlink="http://www.w3.org/1999/xlink" x="0px" y="0px"
	 viewBox="0 0 15 15" style="enable-background:new 0 0 15 15;" xml:space="preserve">
<style type="text/css">
	.st0{fill:#B3B3B3;}
	.st1{fill:#00A044;}
	.st2{fill:#1C75BC;}
	.st3{fill:#7F3F98;}
</style>
<g>
	<g>
		<g>
			<rect x="9.4" y="2.5" transform="matrix(0.5603 -0.8283 0.8283 0.5603 0.6894 9.9456)" class="st0" width="0.6" height="3.6"/>
		</g>
		<g>
			<rect x="5.3" y="3.3" transform="matrix(0.9887 -0.1498 0.1498 0.9887 -0.4536 1.0579)" class="st0" width="2.9" height="0.6"/>
		</g>
		<g>
			<g>
				<polygon class="st0" points="5.1,11.7 3.8,9.6 1.4,8.6 0.5,6 2.3,4.2 2.7,4.6 1.2,6.2 1.9,8.2 4.2,9.2 5.6,11.4 				"/>
			</g>
			<g>
				<polygon class="st0" points="1.9,8.5 1.6,8 3.9,6.6 7.6,5.6 11.3,5 13.2,6.2 12.9,6.7 11.1,5.6 7.8,6.1 4.1,7.2 				"/>
			</g>
			<g>
				<polygon class="st0" points="6.4,9.6 7.4,5.8 7.9,3.3 8.5,3.4 8,5.9 7.2,8.9 10.1,8.4 10.9,5.3 11.5,5.4 10.6,8.9 				"/>
			</g>
			<g>
				<polygon class="st0" points="4.2,7 3.7,6.8 5.3,3.3 7.9,5.6 7.5,6.1 5.5,4.2 				"/>
			</g>
		</g>
	</g>
	<g>
		<circle class="st1" cx="0.8" cy="6.1" r="0.7"/>
	</g>
	<g>
		<circle class="st1" cx="2.5" cy="4.4" r="0.8"/>
	</g>
	<g>
		<circle class="st2" cx="5.4" cy="3.8" r="1.2"/>
	</g>
	<g>
		<circle class="st2" cx="8.2" cy="3.3" r="0.7"/>
	</g>
	<g>
		<circle class="st2" cx="11.2" cy="5.3" r="0.7"/>
	</g>
	<g>
		<circle class="st2" cx="10.3" cy="8.6" r="1"/>
	</g>
	<g>
		<circle class="st2" cx="7.7" cy="5.8" r="1"/>
	</g>
	<g>
		<circle class="st2" cx="6.8" cy="9.2" r="1.2"/>
	</g>
	<g>
		<circle class="st1" cx="5.4" cy="11.6" r="0.9"/>
	</g>
	<g>
		<circle class="st1" cx="4" cy="9.4" r="0.7"/>
	</g>
	<g>
		<circle class="st1" cx="1.7" cy="8.3" r="0.8"/>
	</g>
	<g>
		<circle class="st1" cx="4" cy="6.9" r="1"/>
	</g>
	<g>
		<path class="st3" d="M13.9,7.4C13.8,7.4,13.8,7.4,13.9,7.4c-0.1,0.2-0.2,0.2-0.3,0.2c0,0,0,0-0.1-0.1c-0.1-0.1-0.1-0.2-0.2-0.4
			C13.3,7.1,13.1,7,13,6.9c-0.1-0.1-0.1-0.1,0-0.1c0.1-0.1,0.3-0.1,0.4,0c0.1,0.1,0.1,0.1,0.2,0.2c0.2-0.4,0.5-0.8,0.8-1.1
			c-0.2-0.2-0.5-0.3-0.8-0.3c-0.7,0-1.2,0.5-1.2,1.2S13,8,13.6,8s1.2-0.5,1.2-1.2c0-0.3-0.1-0.5-0.2-0.7C14.3,6.5,14.1,6.9,13.9,7.4
			z"/>
	</g>
</g>
</svg>
